<?xml version="1.0" encoding="UTF-8"?>
<svg width="98px" height="96px" viewBox="0 0 98 96" version="1.1" xmlns="http://www.w3.org/2000/svg" xmlns:xlink="http://www.w3.org/1999/xlink">
    <!-- Generator: Sketch 50.2 (55047) - http://www.bohemiancoding.com/sketch -->
    <title>Untitled</title>
    <desc>Created with Sketch.</desc>
    <defs></defs>
    <g id="Page-1" stroke="none" stroke-width="1" fill="none" fill-rule="evenodd">
        <g id="logo" fill="#FF0000" fill-rule="nonzero">
            <path d="M97.07,59.4 L94.93,54.31 C94.41,53.08 93.88,51.81 93.27,50.58 L92.88,49.8 C92.57,49.2 92.25,48.58 91.99,47.96 C91.73,47.34 91.46,46.54 91.23,45.83 C91,45.12 90.82,44.57 90.58,43.95 C89.9038603,42.3601988 89.1047712,40.8255464 88.19,39.36 C87.4143719,38.1090449 86.719618,36.8097215 86.11,35.47 C85.6880651,34.4560056 85.3175935,33.4213553 85,32.37 C84.5089759,30.5692004 83.7827205,28.8409816 82.84,27.23 C82.6,26.87 82.34,26.52 82.08,26.17 C81.7487008,25.7476906 81.441544,25.3069873 81.16,24.85 C80.98,24.55 80.83,24.23 80.68,23.92 C80.53,23.61 80.35,23.27 80.17,22.92 C79.7422037,22.2122884 79.2536984,21.543103 78.71,20.92 C77.71,19.66 76.55,18.42 75.42,17.22 L75.18,17 C74.2714319,16.1296027 73.4843444,15.1406978 72.84,14.06 L72.84,14 C72.4421291,13.1836177 71.7987205,12.5122348 71,12.08 L70.48,11.7 C70.0111503,11.3220959 69.5700179,10.9110407 69.16,10.47 L65,6.23 C64.6438111,5.84105229 64.252114,5.48618142 63.83,5.17 C63.3194736,4.84468755 62.7765658,4.57323366 62.21,4.36 L61.75,4.17 C61.2516446,3.95017878 60.767384,3.69969917 60.3,3.42 C59.4987132,2.94843871 58.6668671,2.53084529 57.81,2.17 C54.0772782,0.91848958 50.1559782,0.323020386 46.22,0.41 C44.8026361,0.436382655 43.4089231,0.777978987 42.14,1.41 C41.3965549,1.26880361 40.6274301,1.42694144 40,1.85 C39.7776222,1.96668979 39.5470069,2.06695731 39.31,2.15 C38.4526145,2.35411277 37.5570572,2.33344606 36.71,2.09 C36.1664084,1.97283943 35.61491,1.8959639 35.06,1.86 C34.78,1.86 34.51,1.86 34.24,1.86 C33.8606125,1.89051324 33.4793875,1.89051324 33.1,1.86 C32.7599636,1.80153763 32.42545,1.71456409 32.1,1.6 L31.68,1.47 L31.53,1.47 C30.6270299,1.08111104 29.6124647,1.03839251 28.68,1.35 C27.6888915,2.0010641 27.0174452,3.03908379 26.83,4.21 C26.7496764,4.73360406 26.7496764,5.26639594 26.83,5.79 C26.8681992,6.05850865 26.891568,6.32891888 26.9,6.6 C26.8977624,7.07846094 26.8097007,7.55263936 26.64,8 L26.64,8.15 C26.5568214,8.37082122 26.4565162,8.58480577 26.34,8.79 C26.1827087,9.06435404 26.0585081,9.35639332 25.97,9.66 C25.9177422,9.86226473 25.8974968,10.0714681 25.91,10.28 C25.87304,10.6806265 25.7610961,11.0707343 25.58,11.43 C25.4072599,11.8000235 25.2796761,12.18949 25.2,12.59 C25.1423742,13.0040369 25.1189616,13.422118 25.13,13.84 C25.1580962,14.3414519 25.1074829,14.8442104 24.98,15.33 C24.92,15.5 24.83,15.67 24.75,15.84 L24.63,16.1 C24.4402048,16.5467653 24.2765944,17.0042067 24.14,17.47 C24.0164297,17.922406 23.8558894,18.3638918 23.66,18.79 C23.3465482,19.4140773 22.9641632,20.0010719 22.52,20.54 L19.72,24.25 C18.776023,24.9238582 17.6395565,25.2746195 16.48,25.25 L16.31,25.25 C16.0157448,25.227836 15.7198509,25.2446481 15.43,25.3 C15.2934557,25.3327478 15.1597075,25.376216 15.03,25.43 L14.79,25.51 C14.4064553,25.5703176 14.0180148,25.593758 13.63,25.58 C12.8014687,25.632523 12.0059757,25.9243196 11.34,26.42 C11.1699867,26.4551764 11.0096308,26.5268247 10.87,26.63 C10.5510282,26.8911089 10.3612623,27.2779393 10.35,27.69 C10.3612943,27.7796457 10.3612943,27.8703543 10.35,27.96 C10.21,28.42 10.06,28.86 9.9,29.3 C9.57186961,30.175666 9.32417974,31.0793993 9.16,32 C9.09,32.47 9.04,33 8.99,33.43 C8.92691237,34.5583941 8.69430573,35.6708606 8.3,36.73 L8.24,36.88 C8.12625359,37.1058527 8.03900739,37.344102 7.98,37.59 C7.94595079,37.8856897 7.94595079,38.1843103 7.98,38.48 C7.99706172,38.6527773 8.00374039,38.8264227 8,39 C7.87734719,39.5142568 7.63781374,39.9933237 7.3,40.4 C7.15,40.63 7,40.87 6.87,41.1 C6.19745732,42.5201601 5.70368688,44.0182663 5.4,45.56 C5.2,46.35 5.02,47.1 4.8,47.81 C4.74,48 4.69,48.21 4.64,48.43 C4.58997376,48.7763285 4.48887453,49.113326 4.34,49.43 C4.05136535,49.7780595 3.68940901,50.0580635 3.28,50.25 C3.13,50.34 2.97,50.42 2.84,50.51 L1.6,51.31 C1.36838362,51.4593549 1.30129418,51.7679663 1.45,52 C1.59935493,52.2316164 1.90796633,52.2987058 2.14,52.15 L3.38,51.35 L3.78,51.11 L3.94,51 C4.31175742,52.6650272 5.0121043,54.2391078 6,55.63 C5.59,56.05 5.08,56.63 4.47,57.44 C3.45824923,58.8134129 2.31262961,60.0829738 1.05,61.23 C0.883409433,61.3636075 0.820061123,61.5882692 0.892314523,61.789224 C0.964567924,61.9901788 1.15647252,62.1230642 1.37,62.12 C1.49346331,62.1185762 1.61299487,62.0763886 1.71,62 C3.02117494,60.8017766 4.21646357,59.4826065 5.28,58.06 C5.76,57.45 6.21,56.88 6.58,56.48 C7.77990414,58.5306336 9.30666701,60.3715313 11.1,61.93 L11.41,62.17 C11.9274717,62.5001494 12.36202,62.9449626 12.68,63.47 C12.7293382,63.5809453 12.7727329,63.6944393 12.81,63.81 C12.8822055,64.0094965 12.9691106,64.2033618 13.07,64.39 C13.1886945,64.5860695 13.3259949,64.7702529 13.48,64.94 L13.58,65.06 C13.7243539,65.2784567 13.7912558,65.5390219 13.77,65.8 C13.7553935,66.8049298 14.3416448,67.7216852 15.26,68.13 L18,69.62 L18.05,69.62 L18.15,69.62 C18.64,69.71 19.09,69.77 19.55,69.84 C20.01,69.91 20.43,69.96 20.9,70.05 C21.2415042,70.0909961 21.577088,70.1715363 21.9,70.29 C22.2561686,70.4653536 22.5915902,70.6800233 22.9,70.93 L23.3,71.23 C23.8779105,71.6247443 24.4944048,71.9597956 25.14,72.23 C25.47,72.37 25.8,72.52 26.14,72.67 C28.3609073,73.2284545 30.6156152,73.6426527 32.89,73.91 C33.02,76.19 33.2,78.41 33.47,80.45 L33.47,80.52 L33.47,80.67 C33.2251124,81.2507304 32.8873663,81.7877467 32.47,82.26 C32.117197,82.6860969 31.8057902,83.144836 31.54,83.63 L28.7,89.27 C28.309764,90.0950768 27.8654638,90.8934809 27.37,91.66 C27.0997456,92.0878497 26.8847049,92.548171 26.73,93.03 C26.6051584,93.4046197 26.4444115,93.7663003 26.25,94.11 C26.1767021,94.2218923 26.1523336,94.3588861 26.1825493,94.4891915 C26.212765,94.6194968 26.2949381,94.7317853 26.41,94.8 C26.4882132,94.8476613 26.5784298,94.8719504 26.67,94.87 C26.8430753,94.8712653 27.0049804,94.7846649 27.1,94.64 C27.3339071,94.2377736 27.5249536,93.8121087 27.67,93.37 C27.7947753,92.9648167 27.973012,92.5780766 28.2,92.22 C28.7205074,91.4197644 29.1849526,90.5844314 29.59,89.72 L32.43,84.08 C32.672301,83.6541397 32.9499436,83.2493836 33.26,82.87 C33.7053351,82.3068916 34.0565472,81.6753852 34.3,81 C34.41,80.67 34.51,80.33 34.6,80 C34.69,79.67 34.84,79.16 34.99,78.74 C35.5349949,77.4425479 36.2368899,76.2167505 37.08,75.09 C37.54,74.41 38.01,73.71 38.43,72.99 C38.5394572,73.2061893 38.623356,73.4343941 38.68,73.67 C38.88,74.67 39.02,75.67 39.14,76.67 C38.7876228,77.2037276 38.479911,77.7656361 38.22,78.35 C37.9101978,79.0285084 37.5456599,79.6806633 37.13,80.3 C36.47,81.14 31.19,92.12 30.99,92.57 C30.7272705,93.0713225 30.4228655,93.5496732 30.08,94 C29.84,94.32 29.6,94.64 29.43,94.91 C29.3608248,95.0223283 29.3398645,95.157804 29.3718597,95.2857851 C29.403855,95.4137661 29.4861027,95.5234398 29.6,95.59 C29.6753918,95.644772 29.7668582,95.6729155 29.86,95.67 C30.0335826,95.6737168 30.1950756,95.5814351 30.28,95.43 C30.44,95.19 30.65,94.9 30.88,94.59 C31.2622771,94.1101603 31.5971744,93.5944186 31.88,93.05 C32.41,91.89 37.37,81.65 37.88,80.97 C38.3376491,80.2993374 38.7358296,79.5899737 39.07,78.85 C39.13,78.73 39.2,78.6 39.26,78.47 C39.33,79.47 39.36,80.55 39.34,81.59 C39.3253025,81.8520202 39.3488838,82.1147836 39.41,82.37 C39.4836016,82.5852848 39.5844185,82.7902791 39.71,82.98 C39.8039287,83.1090027 39.8718578,83.2550501 39.91,83.41 C39.9184915,83.4964587 39.9184915,83.5835413 39.91,83.67 C39.8992677,83.7930999 39.8992677,83.9169001 39.91,84.04 C39.17,85.12 38.56,86.15 37.98,87.15 C37.4,88.15 36.76,89.17 36,90.26 C35.3201364,91.3165296 34.7345454,92.4308257 34.25,93.59 C34.196514,93.7119491 34.1938831,93.8501959 34.2426905,93.9740916 C34.2914979,94.0979874 34.3877111,94.1972956 34.51,94.25 C34.5759271,94.264043 34.6440729,94.264043 34.71,94.25 C34.9094432,94.2506945 35.0902234,94.1327944 35.17,93.95 C35.6302715,92.8489981 36.1822118,91.7886036 36.82,90.78 C37.59,89.66 38.21,88.6 38.82,87.58 C39.29,86.77 39.82,85.94 40.34,85.09 C40.7995295,85.7845488 41.1376772,86.5521442 41.34,87.36 C41.4827734,87.7414639 41.3200747,88.1696184 40.96,88.36 L39.28,90.03 C39.03034,90.2425707 38.8638654,90.5365576 38.81,90.86 C38.7947791,91.0908103 38.8395651,91.3216304 38.94,91.53 L38.94,91.65 L39.1,92.08 C39.23,92.4 39.53,93.15 39.38,93.32 C39.0289103,93.5072064 38.6454397,93.6259805 38.25,93.67 C37.8235263,93.7241237 37.4083549,93.8456373 37.02,94.03 C36.9054375,94.0984905 36.823015,94.2099433 36.7910848,94.3395426 C36.7591545,94.4691419 36.7803673,94.6061281 36.85,94.72 C36.9398045,94.8714447 37.1039575,94.963065 37.28,94.96 C37.3682527,94.9606015 37.4548916,94.9363426 37.53,94.89 C37.8260343,94.773708 38.1348823,94.6931389 38.45,94.65 C39.0549073,94.5999652 39.631952,94.374014 40.11,94 C40.69,93.37 40.31,92.41 40.04,91.71 C39.9830957,91.5861687 39.9330206,91.4593118 39.89,91.33 L39.83,91.16 C39.799821,91.0994031 39.7763486,91.0356923 39.76,90.97 C39.8058035,90.8803954 39.8706523,90.8018941 39.95,90.74 L41.63,89.06 C41.9624969,88.7851045 42.2032122,88.4153099 42.32,88 C42.3646485,87.7097082 42.3476116,87.4132653 42.27,87.13 C42.0443007,86.1309304 41.630246,85.1840348 41.05,84.34 C40.9758115,84.2419598 40.9152599,84.1343125 40.87,84.02 C40.8617137,83.9268506 40.8617137,83.8331494 40.87,83.74 C40.8968264,83.5677046 40.8968264,83.3922954 40.87,83.22 C40.8224121,82.9098465 40.7025147,82.6152415 40.52,82.36 C40.4414089,82.2486945 40.3775457,82.1276906 40.33,82 C40.307738,81.8340767 40.307738,81.6659233 40.33,81.5 C40.3665058,79.9234651 40.292994,78.3463039 40.11,76.78 C40.1200129,76.7338704 40.1200129,76.6861296 40.11,76.64 C39.99,75.57 39.83,74.5 39.62,73.44 C39.5457334,73.1372228 39.4419015,72.842474 39.31,72.56 C39.1311709,72.2591276 39.0573065,71.9073922 39.1,71.56 L39.1,71.47 C39.1651393,71.3370023 39.2219163,71.2000696 39.27,71.06 L39.78,70 C40.0251301,69.2764085 40.4440408,68.6240065 41,68.1 L41.13,67.97 C41.6150352,67.7015522 41.9483173,67.2235189 42.0324658,66.6755751 C42.1166143,66.1276314 41.9421319,65.5716199 41.56,65.17 C40.9713615,64.2491335 40.302063,63.382392 39.56,62.58 C39.34,62.35 39.11,62.13 38.88,61.92 C38.3959293,61.5017509 37.9659408,61.0247324 37.6,60.5 C37.2064917,59.7903154 36.9232506,59.0248901 36.76,58.23 C36.69,57.95 36.62,57.67 36.54,57.39 C36.0068988,55.619335 35.1074406,53.9805494 33.9,52.58 L34,52.51 C34.4032286,52.28049 34.7248297,51.9309236 34.92,51.51 C35.0097048,51.0409168 35.0097048,50.5590832 34.92,50.09 L34.92,49.8 C34.8407542,49.4309409 34.912796,49.0455171 35.12,48.73 C35.2579007,48.6129435 35.4089091,48.5122712 35.57,48.43 C35.9741135,48.2505814 36.303,47.9358406 36.5,47.54 C36.6153233,47.2192848 36.6361482,46.8722035 36.56,46.54 C36.5295372,46.3848142 36.5295372,46.2251858 36.56,46.07 C36.6744319,45.8879743 36.8750003,45.7782294 37.09,45.78 C37.4028478,45.8060639 37.7097964,45.8802713 38,46 L38.18,46 C38.74,46.14 39.32,46.24 39.87,46.33 L41.49,46.6 C42.95,46.83 44.39,47.07 45.85,47.33 C46.2211853,47.4134891 46.5996628,47.4603801 46.98,47.47 C47.2295922,47.4901942 47.4804078,47.4901942 47.73,47.47 L47.93,47.47 C49.2042774,47.3900166 50.4832553,47.4301939 51.75,47.59 C52.3852018,47.568239 53.0101593,47.7543218 53.53,48.12 C53.62,48.21 53.69,48.31 53.77,48.4 C53.9287061,48.6189094 54.1210906,48.8112939 54.34,48.97 C54.5708556,49.1146439 54.8243905,49.2194383 55.09,49.28 C55.58,49.43 56.09,49.63 56.57,49.82 C57.05,50.01 57.57,50.23 58.14,50.39 C58.5476,50.5015563 58.9674851,50.5620198 59.39,50.57 C59.6956565,50.576924 60.000134,50.6103831 60.3,50.67 C60.6890167,50.8012396 61.0513988,51.0010578 61.37,51.26 C61.7302976,51.5344592 62.1275545,51.7566537 62.55,51.92 C63.5069982,52.4039819 64.4322038,52.948417 65.32,53.55 L65.47,53.65 C65.86,53.9 66.18,54.11 66.36,54.21 C66.4739027,54.2809094 66.5840507,54.3576792 66.69,54.44 C66.9273123,54.6419877 67.1980354,54.8010375 67.49,54.91 C67.856284,54.999264 68.2333483,55.0362971 68.61,55.02 C69.2155942,55.097949 69.8037843,55.2771103 70.35,55.55 C72.015133,56.2366985 73.6350495,57.0282866 75.2,57.92 C75.8,58.28 76.38,58.66 76.96,59.05 C78.2061935,59.9426074 79.5477684,60.6938893 80.96,61.29 C81.0191792,61.3040356 81.0808208,61.3040356 81.14,61.29 C81.3385835,61.2978844 81.5214886,61.1825747 81.6,61 C81.6966543,60.7432907 81.5729466,60.456112 81.32,60.35 C79.9823347,59.7835148 78.7140486,59.0654904 77.54,58.21 C76.94,57.81 76.35,57.42 75.74,57.05 C74.1283857,56.1342168 72.4580894,55.3257934 70.74,54.63 C70.0964683,54.2986592 69.3987807,54.0852887 68.68,54 C68.3920604,54.0081992 68.1040115,53.9881027 67.82,53.94 C67.6345778,53.8644821 67.4624088,53.7598304 67.31,53.63 C67.1783331,53.5188196 67.0378734,53.4184913 66.89,53.33 C69.0757267,52.8073552 71.3269027,52.6118938 73.57,52.75 C74.3508201,52.7965583 75.1231186,52.9375867 75.87,53.17 C76.8212124,53.5262616 77.7273936,53.9927771 78.57,54.56 L81.57,56.42 C82.3280217,56.8691611 83.0562074,57.3668661 83.75,57.91 C84.01,58.12 84.26,58.34 84.51,58.56 C85.0437454,59.0808665 85.6340829,59.5403906 86.27,59.93 C87.49,61 92.5,62.69 94,63 C94.2814518,63.0458018 94.5544713,63.1334377 94.81,63.26 C94.8876076,63.3101832 94.9776054,63.3378748 95.07,63.34 C95.2445298,63.3372409 95.4060325,63.2470998 95.5,63.1 C95.5696327,62.9861281 95.5908455,62.8491419 95.5589152,62.7195426 C95.526985,62.5899433 95.4445625,62.4784905 95.33,62.41 C94.9615509,62.2021397 94.5582898,62.063201 94.14,62 C92.59,61.66 87.8,60 86.92,59.13 L86.81,59.05 C86.2184124,58.692533 85.6712648,58.2662278 85.18,57.78 C84.92,57.55 84.65,57.31 84.38,57.09 C83.6468981,56.5191134 82.8787246,55.9947515 82.08,55.52 L79.08,53.67 C78.4606852,53.2713813 77.8196969,52.9074869 77.16,52.58 C77.2123197,52.3982471 77.2792029,52.2210067 77.36,52.05 C77.4408417,51.8846691 77.510986,51.7143188 77.57,51.54 L78,49.75 C78.0630772,49.4798807 77.8986986,49.2088782 77.63,49.14 C77.3653625,49.0767576 77.0987332,49.2367352 77.03,49.5 L76.57,51.32 C76.57,51.41 76.48,51.54 76.42,51.67 C76.3373477,51.8528701 76.2639221,52.0397716 76.2,52.23 L76.14,52.23 C75.3179591,51.9748905 74.468817,51.8171448 73.61,51.76 C70.916111,51.6072789 68.21516,51.8875026 65.61,52.59 C64.7377918,51.98658 63.8181148,51.4548394 62.86,51 C62.7285222,50.9467841 62.6014594,50.8832527 62.48,50.81 C62.5035801,49.6647803 62.6956394,48.5292716 63.05,47.44 C63.14,47.07 63.27,46.71 63.39,46.35 C63.5728557,45.8604509 63.7231828,45.3593606 63.84,44.85 C63.9900958,43.9314444 64.0437208,42.9997105 64,42.07 L64,39.37 C63.9946799,39.0960915 63.7739085,38.8753201 63.5,38.87 C63.2238576,38.87 63,39.0938576 63,39.37 L63,42.07 C63.0291136,42.9135944 62.9721524,43.7579593 62.83,44.59 C62.7314324,45.0681335 62.6011444,45.539175 62.44,46 C62.31,46.38 62.18,46.76 62.06,47.25 C61.7781208,48.1895092 61.5872422,49.1539481 61.49,50.13 C61.1833397,49.928955 60.8454042,49.7802633 60.49,49.69 C60.1280345,49.6133973 59.7598504,49.5698846 59.39,49.56 L59.15,49.56 C58.8066921,47.4988236 58.2226987,45.4850531 57.41,43.56 C57.27,43.2 57.14,42.84 57.01,42.49 C56.73,41.73 56.39,40.98 56.01,40.25 L54.71,37.44 C54.482972,36.8861409 54.1944999,36.3595114 53.85,35.87 C53.6465709,35.6120132 53.4295994,35.3649994 53.2,35.13 C52.9671574,34.8973285 52.7531519,34.6465409 52.56,34.38 C52.3417533,34.044275 52.1543229,33.6894961 52,33.32 C51.8338609,32.9199301 51.6330981,32.5351348 51.4,32.17 C50.8780103,31.4526204 50.2268937,30.8388074 49.48,30.36 C49.13,29.9 48.81,29.42 48.48,28.95 C48.4513501,28.8723817 48.4031236,28.8034867 48.34,28.75 C47.7560427,27.8618515 47.2186508,26.9439462 46.73,26 C46.5484523,25.6803831 46.3945587,25.3458319 46.27,25 C46.27,24.84 46.19,24.69 46.16,24.53 C46.13,24.37 46.08,24.14 46.02,23.94 C45.891325,23.5652599 45.7272509,23.203627 45.53,22.86 C45.4266652,22.6716565 45.3332054,22.4780612 45.25,22.28 C45.0472368,21.788752 44.8899124,21.2799584 44.78,20.76 C44.7,20.43 44.61,20.11 44.52,19.76 C44.3046835,19.120047 44.0543048,18.492431 43.77,17.88 C43.4063022,17.1315803 43.1214362,16.3473609 42.92,15.54 C42.87,15.3 42.83,15.06 42.79,14.81 C42.75,14.56 42.7,14.23 42.64,13.94 C42.1155329,12.192835 41.167428,10.6023546 39.88,9.31 L40.02,9.23 C40.2687477,9.09350588 40.5463797,9.01809966 40.83,9.01 C40.9327483,8.99639667 41.0372176,9.01380822 41.13,9.06 C41.26,9.13 41.35,9.38 41.44,9.64 C41.53,9.9 41.53,9.89 41.58,10.01 C42.1603344,10.9486019 43.0524296,11.6530739 44.1,12 C44.1677415,12.0355038 44.2435675,12.052737 44.32,12.05 C44.5127565,12.0461603 44.6868719,11.9339527 44.77,11.76 C44.8275466,11.6409197 44.8345125,11.5036336 44.7893148,11.3793401 C44.7441172,11.2550465 44.6505946,11.1543017 44.53,11.1 C43.6989906,10.8182052 42.9919074,10.256074 42.53,9.51 C42.4873323,9.41230364 42.4505989,9.31212157 42.42,9.21 C42.3090583,8.74966982 42.0310813,8.34695951 41.64,8.08 C41.3916846,7.95750028 41.1166713,7.89905995 40.84,7.91 C40.3718637,7.92344516 39.9145773,8.05409841 39.51,8.29 C38.9814803,7.02118301 38.02166,5.97990195 36.8,5.35 C36.3514627,5.18503449 35.8848224,5.07424937 35.41,5.02 L35,5 C33.6926291,4.71693446 32.4212873,4.28756309 31.21,3.72 L31.01,3.62 C30.9660113,3.56977807 30.9258962,3.51629125 30.89,3.46 L30.82,3.35 C30.4094817,2.77346125 29.7654177,2.40751579 29.06,2.35 C29.1253424,2.2995592 29.1957151,2.25599518 29.27,2.22 C29.9767815,2.03964908 30.7237424,2.10307029 31.39,2.4 L31.54,2.4 L31.94,2.53 C32.2989235,2.65147229 32.6666806,2.74508318 33.04,2.81 C33.4791119,2.84953616 33.9208881,2.84953616 34.36,2.81 C34.61,2.81 34.86,2.81 35.11,2.81 C35.6145135,2.84272871 36.1158954,2.91292218 36.61,3.02 C37.6286488,3.29333909 38.7013512,3.29333909 39.72,3.02 C40.0021304,2.92112856 40.2762668,2.80077601 40.54,2.66 C40.9468651,2.38151772 41.4397701,2.25740496 41.93,2.31 L42.15,2.36 C42.2795994,2.39148025 42.4164047,2.36987942 42.53,2.3 C43.7026469,1.66903732 45.0086379,1.32625753 46.34,1.3 C50.1147122,1.26320513 53.8682024,1.8684977 57.44,3.09 C58.2625477,3.43622838 59.060999,3.83712439 59.83,4.29 C60.3295361,4.58862479 60.8472073,4.85580989 61.38,5.09 L61.85,5.29 C62.3498601,5.47262322 62.8291561,5.70724365 63.28,5.99 C63.6392633,6.27455138 63.9737912,6.58900763 64.28,6.93 L68.41,11.16 C68.8524576,11.6387478 69.3304874,12.0833489 69.84,12.49 L70.39,12.89 C70.08,12.89 69.77,12.84 69.46,12.83 C69.0064784,12.8392436 68.553424,12.7956162 68.11,12.7 C67.9799751,12.6669139 67.8421085,12.6874724 67.7273933,12.7570538 C67.612678,12.8266352 67.5307403,12.9394007 67.5,13.07 C67.4668294,13.1973705 67.4862949,13.3327304 67.5540123,13.4455926 C67.6217296,13.5584549 67.7320046,13.6393291 67.86,13.67 C68.3784308,13.7859703 68.9088448,13.8396831 69.44,13.83 C69.774398,13.8341823 70.1082804,13.8575541 70.44,13.9 C71.0014047,13.9824658 71.5245057,14.2335543 71.94,14.62 L71.99,14.67 C72.6657694,15.7661053 73.475324,16.7738496 74.4,17.67 L74.63,17.91 C75.75,19.1 76.85,20.33 77.88,21.57 C78.3842394,22.153511 78.8422898,22.7753896 79.25,23.43 C79.42,23.73 79.57,24.03 79.72,24.33 C79.87,24.63 80.05,25 80.24,25.33 C80.5476823,25.8176762 80.8815027,26.2883629 81.24,26.74 C81.49,27.07 81.73,27.4 81.96,27.74 C82.85552,29.285644 83.5415322,30.9435068 84,32.67 C84.3280867,33.7557206 84.7119294,34.8238048 85.15,35.87 C85.7833149,37.2446233 86.4979126,38.58032 87.29,39.87 C88.1771854,41.2911413 88.9528434,42.7789336 89.61,44.32 C89.85,44.92 90.05,45.53 90.24,46.14 C90.43,46.75 90.72,47.62 91.03,48.35 C91.34,49.08 91.63,49.64 91.95,50.26 C92.08,50.51 92.21,50.77 92.33,51.02 C92.93,52.22 93.46,53.48 93.97,54.7 L96.11,59.79 C96.187623,59.974604 96.369769,60.0933949 96.57,60.09 C96.632541,60.1041673 96.697459,60.1041673 96.76,60.09 C96.9012264,60.051407 97.0177973,59.951686 97.0777961,59.8181403 C97.1377949,59.6845946 97.1349352,59.5312163 97.07,59.4 Z M13.78,26.51 L14.15,26.51 C14.4858468,26.5243628 14.8221147,26.4940987 15.15,26.42 L15.48,26.31 C15.5696591,26.2695847 15.6635842,26.2393945 15.76,26.22 C15.9658328,26.1937448 16.1741672,26.1937448 16.38,26.22 L16.56,26.22 C17.2366671,26.2348387 17.9114907,26.1437375 18.56,25.95 L18.13,26.52 C17.7626123,27.0907285 17.2828684,27.5806797 16.72,27.96 C15.8014011,28.4443067 14.675524,28.2828906 13.93,27.56 C13.8010029,27.4076414 13.6407007,27.2848567 13.46,27.2 C13.2884742,27.1298489 13.1052993,27.0925355 12.92,27.09 C12.8568705,27.0971857 12.7931295,27.0971857 12.73,27.09 C12.6602409,27.0446496 12.5992594,26.9870559 12.55,26.92 C12.9268904,26.6989838 13.3458779,26.5593213 13.78,26.51 Z M5.19,49.9 C5.40694583,49.5088348 5.55254908,49.0821833 5.62,48.64 C5.62,48.46 5.7,48.27 5.75,48.11 C5.98,47.36 6.18,46.57 6.37,45.79 C6.66182286,44.3370128 7.12506277,42.9237954 7.75,41.58 C7.86974325,41.379964 7.999923,41.1863633 8.14,41 C8.55400658,40.4543116 8.82861459,39.815848 8.94,39.14 C8.96501712,38.9173673 8.96501712,38.6926327 8.94,38.47 C8.91436431,38.2607824 8.91436431,38.0492176 8.94,37.84 C8.98624253,37.6673307 9.04990251,37.4998044 9.13,37.34 L9.2,37.18 C9.65273628,36.015168 9.92259259,34.7873218 10,33.54 C10,33.07 10.1,32.61 10.17,32.15 C10.3322493,31.2679983 10.5800879,30.4039124 10.91,29.57 C11.08,29.11 11.24,28.65 11.38,28.17 C11.4191101,28.0394602 11.445894,27.9055407 11.46,27.77 C11.4813803,27.630692 11.5148398,27.4935081 11.56,27.36 L11.62,27.36 L11.76,27.49 C11.8836876,27.6502809 12.0363232,27.785957 12.21,27.89 C12.3489513,27.9667062 12.5020568,28.014339 12.66,28.03 C12.6214158,29.3771755 12.3993718,30.7128043 12,32 C11.6689948,33.131402 11.4348175,34.2889069 11.3,35.46 L11.3,35.83 C11.2882188,36.1045815 11.2615126,36.3783191 11.22,36.65 C11.1465757,37.0070532 11.0462905,37.3580514 10.92,37.7 L10.83,37.95 C10.48,38.95 10.23,40.06 9.99,41.09 C9.72834209,42.364117 9.37406822,43.6174443 8.93,44.84 C8.75,45.29 8.55,45.72 8.35,46.16 C7.98350038,46.9129065 7.67266798,47.6916586 7.42,48.49 C7.18004872,49.309872 7.01602434,50.1500785 6.93,51 C6.93,51.34 6.86,51.69 6.83,52 C6.77292,52.8351063 6.66942677,53.6663907 6.52,54.49 C5.64201932,53.2448462 5.07300692,51.808604 4.86,50.3 C4.98872986,50.1832934 5.09988302,50.0485623 5.19,49.9 Z M18.37,68.71 L16.12,67.47 C16.399065,66.356267 16.4903183,65.2037721 16.39,64.06 C16.3243915,63.1998849 16.3478494,62.3352922 16.46,61.48 C16.54,61.01 16.66,60.55 16.79,60.07 C16.92,59.59 16.96,59.42 17.03,59.07 C17.3942185,57.0073141 17.4749649,54.9045426 17.27,52.82 C17.2679277,52.6852858 17.2093341,52.5576444 17.1085306,52.4682527 C17.0077272,52.378861 16.8739955,52.3359497 16.74,52.35 C16.4677265,52.3661272 16.2586128,52.5974871 16.27,52.87 C16.4689526,54.870727 16.3949413,56.8892158 16.05,58.87 C15.99,59.18 15.9,59.49 15.82,59.8 C15.69,60.29 15.56,60.8 15.47,61.32 C15.3501203,62.2382833 15.3233176,63.1663286 15.39,64.09 C15.4570462,65.0230096 15.4032677,65.9607718 15.23,66.88 C14.9152014,66.5870156 14.7466948,66.1694122 14.77,65.74 C14.7842483,65.2681067 14.6359759,64.8056382 14.35,64.43 L14.24,64.29 C14.1258822,64.1678633 14.0252982,64.0337513 13.94,63.89 C13.8665248,63.7513658 13.8030304,63.6076679 13.75,63.46 C13.7,63.32 13.64,63.17 13.58,63.03 C13.1877209,62.3654409 12.6469403,61.8007017 12,61.38 L11.7,61.15 C11.48,60.98 11.29,60.77 11.08,60.58 C11.14,58.44 11.28,56.27 11.48,54.13 C11.5052592,53.7077549 11.5722525,53.289047 11.68,52.88 C11.7658566,52.579512 11.8727883,52.2854498 12,52 L12.17,51.61 C12.5637895,50.6553649 12.793683,49.6411289 12.85,48.61 C12.85,48.43 12.85,48.25 12.85,48.06 C12.8572168,47.6648888 12.8906234,47.2706909 12.95,46.88 C13.0400672,46.5392038 13.1536734,46.205068 13.29,45.88 C13.4305208,45.5281719 13.5474464,45.167373 13.64,44.8 C13.7406124,44.2898126 13.7675532,43.7678347 13.72,43.25 C13.6742128,42.8613439 13.6742128,42.4686561 13.72,42.08 C14.0649149,40.6578976 14.5926415,39.2864807 15.29,38 L15.44,37.66 C15.5334638,37.4129127 15.4185854,37.1357521 15.1777295,37.0272346 C14.9368736,36.9187171 14.6531585,37.0162916 14.53,37.25 L14.38,37.58 C13.6704503,38.9804091 13.1428403,40.4657823 12.81,42 C12.7603166,42.4620014 12.7603166,42.9279986 12.81,43.39 C12.8661327,43.8114726 12.8661327,44.2385274 12.81,44.66 C12.7332639,45.0021809 12.6261733,45.336839 12.49,45.66 C12.2979585,46.0062721 12.1340962,46.3674379 12,46.74 C11.9180481,47.1854415 11.8745546,47.6371055 11.87,48.09 C11.87,48.27 11.87,48.44 11.87,48.61 C11.8170733,49.5213425 11.6108488,50.4172358 11.26,51.26 L11.1,51.63 C10.9554377,51.9550897 10.8318512,52.2891072 10.73,52.63 C10.6101941,53.0783684 10.5331826,53.537089 10.5,54 C10.33,55.85 10.21,57.73 10.14,59.6 C9.07191323,58.3432226 8.10237017,57.0059219 7.24,55.6 C7.57841689,54.4446314 7.7765088,53.2527224 7.83,52.05 C7.83,51.7033333 7.86,51.37 7.92,51.05 C7.98910644,50.2603723 8.12288863,49.4777465 8.32,48.71 C8.56134942,47.9634149 8.85542269,47.2349152 9.2,46.53 C9.41,46.07 9.61,45.62 9.8,45.16 C10.2613989,43.8920095 10.6290543,42.5918461 10.9,41.27 C11.14,40.27 11.39,39.21 11.72,38.27 L11.8,38 C11.946142,37.6134498 12.0598676,37.2154101 12.14,36.81 C12.1930662,36.4990812 12.2264658,36.1851244 12.24,35.87 L12.24,35.52 C12.3639639,34.4086991 12.5882112,33.3108915 12.91,32.24 C13.26559,31.0470567 13.4968207,29.8205289 13.6,28.58 C14.0125513,28.8652166 14.4843614,29.0532568 14.98,29.13 C14.8918903,30.2167412 14.7281605,31.2960219 14.49,32.36 C14.3879873,32.9003274 14.357726,33.4517544 14.4,34 C14.4057542,34.5976749 14.3790482,35.1952213 14.32,35.79 C14.2969576,35.9201975 14.32751,36.0541814 14.4047176,36.1615189 C14.4819253,36.2688564 14.5992345,36.3404362 14.73,36.36 L14.81,36.36 C15.0593843,36.3581963 15.2708864,36.1763045 15.31,35.93 C15.3723739,35.2919283 15.4024123,34.6511085 15.4,34.01 C15.3780782,33.5802794 15.3780782,33.1497206 15.4,32.72 C15.6915411,31.5573539 15.8921469,30.3737796 16,29.18 C16.4154999,29.1368689 16.8174129,29.0074393 17.18,28.8 C17.6365712,28.5202783 18.0395559,28.1613172 18.37,27.74 C18.37,29.74 18.28,31.83 18.15,33.74 L17.63,42 C17.6294697,42.4540547 17.5482048,42.9043978 17.39,43.33 C17.3038796,43.5130322 17.2000513,43.6871958 17.08,43.85 C16.9449895,44.0494705 16.8214559,44.2564727 16.71,44.47 C16.4346487,45.1653411 16.3217776,45.9143944 16.38,46.66 L16.38,51.4 C16.38,51.6761424 16.6038576,51.9 16.88,51.9 C17.0117074,51.9000274 17.1378806,51.8470321 17.2300663,51.752965 C17.3222521,51.6588979 17.3726879,51.53168 17.37,51.4 L17.37,46.68 C17.3165238,46.0860206 17.3985858,45.4876515 17.61,44.93 C17.6969874,44.7611284 17.7938209,44.5975132 17.9,44.44 C18.0504263,44.2327279 18.1810025,44.0117527 18.29,43.78 C18.5060236,43.2461372 18.6180326,42.6759095 18.62,42.1 L19.14,33.83 C19.3543527,31.39624 19.4144728,28.9513541 19.32,26.51 L21.9,23.09 C21.9,23.88 21.9,24.68 21.9,25.49 C21.9,27.56 21.83,29.71 21.9,31.69 C21.9,32.61 21.97,33.54 22.03,34.47 C22.2050261,36.5663531 22.2050261,38.6736469 22.03,40.77 C21.95,41.46 21.88,42.15 21.81,42.85 C21.69,44.22 21.6,45.6 21.51,46.98 L21.26,50.72 C21.04,54.06 20.83,57.4 20.61,60.72 C20.61,60.9 20.53,61.31 20.45,61.72 C20.3261418,62.333876 20.2426296,62.9552062 20.2,63.58 C20.2,64.58 19.93,67.58 19.8,68.85 L19.72,68.85 C19.23,68.85 18.81,68.79 18.37,68.71 Z M23.44,70.2 C23.0706288,69.8885182 22.6601018,69.6294151 22.22,69.43 C21.8263276,69.2809815 21.4170575,69.1769866 21,69.12 L20.68,69.07 C20.8,67.85 21.1,64.71 21.09,63.64 C21.09,63.37 21.23,62.55 21.33,61.96 C21.43,61.37 21.49,60.96 21.5,60.81 C21.72,57.47 21.93,54.13 22.15,50.81 L22.43,47 C22.52,45.63 22.61,44.26 22.74,42.9 C22.8,42.21 22.87,41.53 22.95,40.9 C23.134993,38.7439609 23.134993,36.5760391 22.95,34.42 C22.89,33.5 22.84,32.58 22.82,31.68 C22.82,29.68 22.82,27.58 22.82,25.51 C22.82,24.25 22.87,23 22.87,21.81 C22.87,21.81 22.87,21.81 22.87,21.81 L23.38,21.13 C23.8650009,20.53718 24.2841289,19.8933993 24.63,19.21 C24.8385347,18.7400236 25.0123339,18.2553914 25.15,17.76 C25.27,17.39 25.39,17.03 25.53,16.69 C25.9139177,19.3724208 25.9944254,22.0895542 25.77,24.79 C25.71,26.29 25.63,27.85 25.68,29.43 L25.68,31.16 C25.6937828,32.9044518 25.8006012,34.6469269 26,36.38 C26.1202423,38.0202458 26.0766937,39.6683927 25.87,41.3 C25.8,42.01 25.73,42.72 25.7,43.41 L25.57,45.63 C25.39,48.82 25.21,52.12 25.11,55.38 C25.11,56.55 25.06,57.72 25.04,58.89 C25.04,60.89 24.85,62.95 24.7,64.89 C24.55,66.83 24.42,68.79 24.38,70.78 C24.1807803,70.6770209 23.987174,70.5635275 23.8,70.44 L23.44,70.2 Z M41.06,66.42 C41.06,66.69 40.75,66.97 40.46,67.24 L40.41,67.29 L40.41,66.17 C40.41,65.83 40.41,65.49 40.34,65.17 C40.48,65.37 40.62,65.56 40.75,65.76 C40.9078663,65.9500019 41.0145737,66.1771853 41.06,66.42 Z M38.24,62.64 L38.88,63.27 L39.14,63.58 C39.1347866,63.6632518 39.1347866,63.7467482 39.14,63.83 C39.1413255,64.1668442 39.1815929,64.5024056 39.26,64.83 C39.3471487,65.2846774 39.3873597,65.7471045 39.38,66.21 L39.38,68.48 C39.1367301,68.8609899 38.941895,69.2708154 38.8,69.7 L38.34,70.77 C38.0944708,71.4343475 37.786422,72.0738836 37.42,72.68 C37.42,71.22 37.34,69.68 37.25,68.13 C37.0548816,65.9777465 37.0548816,63.8122535 37.25,61.66 C37.5596962,62.0065594 37.8903144,62.333838 38.24,62.64 Z M35.84,58.48 C35.9922967,59.1658954 36.2099578,59.8356219 36.49,60.48 C35.97,62.48 36.13,65.23 36.3,68.18 C36.4621266,70.1756912 36.5022012,72.1794222 36.42,74.18 C36.42,74.18 36.42,74.18 36.42,74.26 L36.24,74.53 C35.3956296,75.6809477 34.6812782,76.9218398 34.11,78.23 C33.79,75 33.63,71.44 33.51,68.02 C33.4547593,67.5181823 33.4547593,67.0118177 33.51,66.51 C33.5472392,66.3243952 33.5939671,66.140821 33.65,65.96 C33.65,65.78 33.75,65.59 33.79,65.41 C33.9269638,64.8061725 33.9973836,64.1891606 34,63.57 C34,60.2 33.86,56.96 33.73,53.88 C34.5835379,55.0255033 35.2299608,56.3115803 35.64,57.68 C35.7,57.94 35.76,58.21 35.84,58.48 Z M56.1,42.77 C56.23,43.12 56.36,43.49 56.5,43.85 C57.2342217,45.6126082 57.7870725,47.4453926 58.15,49.32 C57.74,49.18 57.34,49.03 56.92,48.86 L56.1,48.55 C56.133868,47.2150643 56.0871163,45.8793013 55.96,44.55 C55.9,43.7 55.84,42.84 55.81,42.07 C55.91,42.3 56,42.53 56.1,42.77 Z M50.63,32.66 C50.8286055,32.979571 51.0024471,33.3138817 51.15,33.66 C51.22,33.82 51.29,33.97 51.37,34.13 C50.9230331,35.1913303 50.814766,36.364806 51.06,37.49 C51.06,37.81 51.12,38.1 51.13,38.34 C51.1354457,38.6122294 51.3577162,38.8300545 51.63,38.83 C51.7634967,38.8301112 51.8912596,38.7757501 51.9837496,38.679485 C52.0762397,38.5832198 52.1254489,38.4533855 52.12,38.32 C52.12,38.05 52.12,37.73 52.04,37.38 C51.9252039,36.6511592 51.9252039,35.9088408 52.04,35.18 C52.1963047,35.3756662 52.363222,35.5626135 52.54,35.74 C52.7457575,35.9458828 52.9362606,36.1664652 53.11,36.4 C53.413977,36.8355009 53.6720209,37.3013204 53.88,37.79 L54.88,39.95 C54.7695279,41.5030927 54.8030039,43.0630761 54.98,44.61 C55.07,45.92 55.17,47.28 55.14,48.21 C55.052658,48.1832193 54.9687531,48.1463011 54.89,48.1 C54.7563861,47.993879 54.6385401,47.8692989 54.54,47.73 C54.4377565,47.5999618 54.3275448,47.4763911 54.21,47.36 C53.7815954,46.9925357 53.2582193,46.7533771 52.7,46.67 C52.6900135,45.8607314 52.6332522,45.0527169 52.53,44.25 C52.3604288,43.1214216 52.3268556,41.976576 52.43,40.84 C52.4658985,40.5638576 52.2711424,40.3108985 51.995,40.275 C51.7188576,40.2391015 51.4658985,40.4338576 51.43,40.71 C51.3189744,41.9266397 51.3559107,43.1522542 51.54,44.36 C51.6255107,45.08365 51.6722442,45.8113566 51.68,46.54 C50.8,46.46 49.89,46.39 48.98,46.39 C48.8,40.87 48.71,36.05 48.61,30.69 C48.638075,30.802934 48.7054271,30.9021896 48.8,30.97 C49.5053446,31.4204168 50.1249876,31.9926554 50.63,32.66 Z M44.33,22.6 C44.43,22.81 44.54,23.02 44.65,23.23 C44.8137357,23.5238729 44.9509455,23.8317583 45.06,24.15 C45.1105505,24.3139566 45.1506313,24.4809598 45.18,24.65 C45.18,24.83 45.26,25.01 45.31,25.19 C45.4477637,25.6172739 45.6286978,26.0294015 45.85,26.42 C46.3787761,27.3917869 46.9561746,28.3363174 47.58,29.25 C47.68,35.25 47.77,40.41 47.97,46.44 L47.81,46.44 L47.61,46.44 C47.4,46.44 47.16,46.44 46.97,46.44 C46.6337827,46.4295334 46.299148,46.3893773 45.97,46.32 L45.51,46.24 C45.51,46.24 45.51,46.19 45.51,46.17 C45.0248851,43.9438273 44.8066812,41.6677924 44.86,39.39 L44.86,39.1 C44.7851964,37.3849112 44.5677793,35.6790233 44.21,34 C43.844606,32.3355024 43.623784,30.6425337 43.55,28.94 C43.55,27.12 43.6,25.31 43.67,23.56 C43.67,22.66 43.75,21.75 43.77,20.83 C43.77,20.83 43.77,20.91 43.77,20.95 C43.9124185,21.5140384 44.0996811,22.0657944 44.33,22.6 Z M41.81,14.91 C41.81,15.17 41.89,15.43 41.94,15.69 C42.1467802,16.516415 42.4348511,17.3203338 42.8,18.09 C42.8,19.92 42.8,21.72 42.67,23.47 C42.54,25.22 42.52,27.05 42.55,28.91 C42.6236149,30.6698364 42.8511501,32.41985 43.23,34.14 C43.5876561,35.7855883 43.8084106,37.4579709 43.89,39.14 L43.89,39.43 C43.8565251,41.6620422 44.0610131,43.8912964 44.5,46.08 L41.64,45.6 L41.41,45.6 C41.41,43.16 41.08,40.6 40.79,38.19 C40.4134192,35.4318019 40.2030395,32.6534543 40.16,29.87 C40.2145589,29.0266141 40.1607874,28.1797132 40,27.35 C39.902709,26.9762867 39.7824811,26.6089238 39.64,26.25 C39.5115508,25.9240335 39.404654,25.5899809 39.32,25.25 C39.25,24.97 39.21,24.69 39.16,24.37 L39,23.22 C38.6960741,21.4674059 38.6020781,19.6848384 38.72,17.91 C38.72,16.06 38.72,11.91 38.72,9.41 C40.0971478,10.6972933 41.1287359,12.3100093 41.72,14.1 C41.72,14.37 41.76,14.64 41.81,14.91 Z M30,4 C30.0866748,4.14241228 30.1908159,4.27342849 30.31,4.39 C30.4521753,4.50060701 30.6107528,4.58833073 30.78,4.65 C31.59,4.99 32.41,5.33 33.26,5.6 C33.33,8.98 33.57,12.39 33.8,15.7 C34.01,18.58 34.22,21.57 34.32,24.51 L34.67,36 C34.67,36 34.67,36 34.67,36.06 C34.6292063,36.9650119 34.7201569,37.8711486 34.94,38.75 C35.03,39.18 35.14,39.69 35.24,40.33 C35.2750581,40.5729811 35.4845156,40.7525161 35.73,40.75 L35.81,40.75 C35.9413603,40.7302716 36.0594713,40.6590832 36.138268,40.5521448 C36.2170647,40.4452064 36.2500699,40.3113086 36.23,40.18 C36.12,39.52 36.01,39 35.92,38.56 C35.7178489,37.766661 35.6336122,36.94788 35.67,36.13 C35.67,36.13 35.67,36.06 35.67,36.02 L35.3,24.46 C35.2,21.46 34.99,18.46 34.78,15.6 C34.55,12.41 34.32,9.12 34.25,5.86 L34.77,5.98 L35.18,6.04 C35.5814295,6.08999106 35.9767743,6.18045131 36.36,6.31 C36.9207406,6.56220529 37.4015282,6.96343813 37.75,7.47 C37.59,9.09 37.67,17.54 37.67,17.86 C37.5622687,19.6999324 37.6730417,21.546149 38,23.36 L38.18,24.57 C38.23,24.89 38.27,25.2 38.35,25.51 C38.4470029,25.8793564 38.563839,26.2432173 38.7,26.6 C38.82,26.92 38.94,27.25 39.03,27.6 C39.1741279,28.3508919 39.2278434,29.1163382 39.19,29.88 C39.2298844,32.7038034 39.4436222,35.522471 39.83,38.32 C40.1,40.69 40.38,43.12 40.44,45.46 L40.04,45.39 C39.51,45.3 38.96,45.21 38.44,45.08 L38.27,45.08 C37.8934277,44.9524476 37.497498,44.8915354 37.1,44.9 C36.4807205,44.8993201 35.9212775,45.2696556 35.68,45.84 C35.6085083,46.1425 35.6085083,46.4575 35.68,46.76 C35.7105111,46.9185454 35.7105111,47.0814546 35.68,47.24 C35.62,47.38 35.42,47.49 35.19,47.63 C34.9345971,47.7542407 34.7014614,47.9198009 34.5,48.12 C34.0827226,48.6204333 33.9006076,49.2760474 34,49.92 L34,50.23 C34.0532476,50.5612069 34.0532476,50.8987931 34,51.23 C33.8309535,51.4036084 33.6431337,51.557889 33.44,51.69 C32.99,52.02 32.59,52.3 32.65,52.75 C32.65,52.75 32.65,52.75 32.65,52.75 C32.65,52.75 32.65,52.75 32.65,52.75 C32.8,56.13 32.96,59.75 32.97,63.49 C32.9924779,64.0357137 32.9555948,64.5822544 32.86,65.12 C32.86,65.28 32.78,65.45 32.74,65.61 C32.7,65.77 32.62,66.03 32.58,66.25 C32.4880256,66.8218384 32.4645266,67.4026001 32.51,67.98 C32.57,69.58 32.63,71.22 32.72,72.83 C31.34,72.64 29.94,72.42 28.8,72.22 C28.88,70.46 29.13,68.62 29.38,66.84 C29.7740443,64.4699155 29.9813483,62.0725452 30,59.67 C29.978612,59.2873206 29.9318425,58.9064832 29.86,58.53 C29.6989854,57.9475904 29.6989854,57.3324096 29.86,56.75 C29.9278341,56.6002072 30.0081157,56.4563694 30.1,56.32 C30.2779058,56.0519633 30.4223141,55.7631466 30.53,55.46 C30.6027733,54.6683356 30.6027733,53.8716644 30.53,53.08 C30.53,52.87 30.53,52.72 30.53,52.65 C30.53,49.56 30.63,47.09 30.74,44.7 C30.85,42.31 30.96,39.78 30.95,36.63 L30.95,25.81 C30.95,25.5338576 30.7261424,25.31 30.45,25.31 C30.1722477,25.3154472 29.9499466,25.5421943 29.95,25.82 L29.95,36.63 C29.95,39.76 29.85,42.25 29.74,44.63 C29.63,47.01 29.52,49.51 29.53,52.63 C29.53,52.69 29.53,52.86 29.53,53.07 C29.53,53.59 29.53,54.96 29.53,55.17 C29.4305413,55.3788618 29.3203955,55.5824646 29.2,55.78 C29.0837175,55.9557273 28.9801212,56.1395273 28.89,56.33 C28.6538705,57.0863994 28.6365364,57.8941673 28.84,58.66 C28.8967715,58.9911061 28.9368223,59.3248626 28.96,59.66 C28.9376386,62.0354249 28.7337111,64.4056644 28.35,66.75 C28.1,68.51 27.86,70.33 27.77,72.09 C27.3181506,72.0224898 26.8731062,71.9154115 26.44,71.77 C26.13,71.61 25.78,71.46 25.44,71.3 L25.33,71.3 C25.33,69.19 25.51,67.07 25.67,65.01 C25.83,62.95 25.97,61.01 26.01,58.93 C26.01,57.76 26.01,56.59 26.08,55.43 C26.18,52.18 26.36,48.89 26.54,45.7 L26.66,43.49 C26.66,42.81 26.77,42.12 26.83,41.41 C27.0672382,39.7040559 27.1242189,37.9778757 27,36.26 C26.8264511,34.5422141 26.7430035,32.8165164 26.75,31.09 L26.75,29.35 C26.75,27.81 26.75,26.27 26.84,24.78 C27.1585198,21.4347704 26.9493004,18.0602648 26.22,14.78 C26.2393737,14.4469482 26.2393737,14.1130518 26.22,13.78 C26.2089516,13.418945 26.2290258,13.0576093 26.28,12.7 C26.3468923,12.3758017 26.4509114,12.0603889 26.59,11.76 C26.8217079,11.2838757 26.9608419,10.7680621 27,10.24 L27,10.14 C26.9884945,10.0470212 26.9884945,9.95297875 27,9.86 C27.0803481,9.62837631 27.1807278,9.40419498 27.3,9.19 C27.4457391,8.93219018 27.5662962,8.66093663 27.66,8.38 L27.66,8.24 C27.8753992,7.69164739 27.9905607,7.10906562 28,6.52 C28.0193434,6.21363836 28.0193434,5.90636164 28,5.6 C27.9245807,5.17429249 27.9077581,4.74026802 27.95,4.31 C27.9972479,4.05513413 28.0744499,3.80674492 28.18,3.57 C28.425256,4.35862032 28.5697369,5.17510521 28.61,6 C28.66,6.51 28.72,7 28.82,7.56 C28.92,8.12 28.98,10.56 29.04,12.56 C29.04,14.04 29.13,15.49 29.17,16.39 C29.1905869,16.6521349 29.4070939,16.8556514 29.67,16.86 C29.9438177,16.8387042 30.1515973,16.6043996 30.14,16.33 C30.09,15.44 30.05,14 30.01,12.53 C29.92,9.59 29.86,7.77 29.77,7.33 C29.68,6.89 29.63,6.33 29.58,5.87 C29.519379,4.99117593 29.3583301,4.122183 29.1,3.28 C29.4839132,3.39056775 29.8078554,3.64972149 30,4 Z" id="Shape"></path>
            <path d="M79.05,30.22 C79.4801579,29.9499752 79.9441954,29.738132 80.43,29.59 C80.4963327,29.5805633 80.5636673,29.5805633 80.63,29.59 C80.7138878,29.6279413 80.7914571,29.67853 80.86,29.74 L82.17,30.74 C82.2725679,30.8243908 82.4050011,30.8635276 82.5369653,30.848446 C82.6689294,30.8333644 82.7891175,30.7653566 82.87,30.66 C82.9543908,30.5574321 82.9935276,30.4249989 82.978446,30.2930347 C82.9633644,30.1610706 82.8953566,30.0408825 82.79,29.96 L81.48,28.96 C81.1295183,28.5995283 80.5949334,28.4886514 80.13,28.68 C79.5692738,28.8537828 79.0319407,29.0955827 78.53,29.4 C78.4154375,29.4684905 78.333015,29.5799433 78.3010848,29.7095426 C78.2691545,29.8391419 78.2903673,29.9761281 78.36,30.09 C78.5188109,30.3099634 78.8220337,30.3670923 79.05,30.22 Z" id="Shape"></path>
            <path d="M79.51,25.82 C79.6983491,25.82 79.8713651,25.7161904 79.96,25.55 C80.0787349,25.3008666 79.9821632,25.0023723 79.74,24.87 C78.8958345,24.3788307 77.9716936,24.0403175 77.01,23.87 L76.88,23.87 C76.7317674,23.8722445 76.5848901,23.8415028 76.45,23.78 C76.217737,23.6635734 75.9350055,23.7444315 75.7994221,23.9660582 C75.6638387,24.1876849 75.7205859,24.4762242 75.93,24.63 C76.1919075,24.7723444 76.4823217,24.8543437 76.78,24.87 L76.89,24.87 C77.731847,25.0272805 78.5403256,25.3283458 79.28,25.76 C79.3505802,25.7985741 79.4295709,25.8191803 79.51,25.82 Z" id="Shape"></path>
            <path d="M62.84,37.06 C63.1593895,36.6793811 63.4037054,36.2416486 63.56,35.77 C63.6364345,35.4424863 63.6667274,35.1058983 63.65,34.77 C63.65,34.17 63.65,33.57 63.65,32.97 C63.6392594,32.701698 63.4185168,32.4897851 63.15,32.49 C63.017355,32.4951995 62.8922222,32.5529334 62.8021826,32.6504763 C62.7121431,32.7480191 62.6645883,32.8773635 62.67,33.01 C62.67,33.6 62.67,34.18 62.67,34.77 C62.6832968,35.0182415 62.6631155,35.2671433 62.61,35.51 C62.4923437,35.8754559 62.3056324,36.214931 62.06,36.51 C61.97,36.62 61.89,36.74 61.81,36.85 C60.9695077,38.0747336 60.6131911,39.5677005 60.81,41.04 C60.8445924,41.2847474 61.0528328,41.4674889 61.3,41.47 L61.37,41.47 C61.5031861,41.4526831 61.6238055,41.3825123 61.7046904,41.2752928 C61.7855753,41.1680732 61.8199241,41.0328211 61.8,40.9 C61.6379907,39.677334 61.9335958,38.4379295 62.63,37.42 C62.68,37.27 62.76,37.17 62.84,37.06 Z" id="Shape"></path>
            <path d="M67.73,42.37 C67.6800622,42.4481878 67.6397694,42.5321313 67.61,42.62 C67.2562167,43.7762755 67.4754046,45.0319622 68.2,46 L68.68,46.71 C69.1153167,47.2731842 69.453318,47.9052465 69.68,48.58 C69.7385058,48.7972977 69.9349675,48.9487369 70.16,48.95 L70.29,48.95 C70.5541159,48.8769355 70.7102078,48.6048896 70.64,48.34 C70.3844941,47.5538484 69.9917613,46.8191671 69.48,46.17 C69.33,45.94 69.17,45.72 69.03,45.49 C68.479368,44.7819289 68.2873795,43.8589076 68.51,42.99 L68.6,42.8 C68.6744078,42.6631325 68.7347174,42.5190594 68.78,42.37 C68.8694015,42.0651924 68.9032737,41.7467943 68.88,41.43 L68.88,38.91 C68.8929968,38.7746782 68.8441224,38.640734 68.7470291,38.5455826 C68.6499358,38.4504311 68.5150316,38.4042724 68.38,38.42 C68.1038576,38.42 67.88,38.6438576 67.88,38.92 L67.88,41.44 C67.8997921,41.651312 67.882876,41.8644553 67.83,42.07 C67.8034114,42.1721233 67.7700031,42.2723482 67.73,42.37 Z" id="Shape"></path>
            <path d="M77.18,43.11 C76.9667242,42.9485627 76.7428915,42.8015681 76.51,42.67 C76.3240815,42.5627289 76.1438404,42.4459059 75.97,42.32 C75.7037031,42.1503485 75.5331723,41.8648947 75.51,41.55 C75.5392621,41.2769429 75.3428205,41.031391 75.07,41 C74.795135,40.9765643 74.5514571,41.1759372 74.52,41.45 C74.4953155,42.1110967 74.812713,42.7383347 75.36,43.11 C75.56,43.26 75.78,43.39 76,43.53 C76.1947243,43.6369775 76.3818353,43.7572631 76.56,43.89 C76.8675201,44.1606515 77.1307146,44.4778346 77.34,44.83 C77.4231415,45.0037029 77.598651,45.1142193 77.7912262,45.1141323 C77.9838013,45.1140453 78.1592108,45.0033702 78.2421953,44.8295923 C78.3251798,44.6558143 78.3009882,44.4498234 78.18,44.3 C77.917884,43.8485644 77.579549,43.4459457 77.18,43.11 Z" id="Shape"></path>
            <path d="M84,37.62 C83.7298456,37.6250921 83.5105482,37.8400036 83.5,38.11 C83.5,39.4 83.5,40.7 83.6,41.97 C83.6158899,42.2343619 83.8351614,42.4404771 84.1,42.44 C84.232772,42.4298057 84.3559925,42.3670698 84.4423441,42.2657005 C84.5286957,42.1643313 84.5710438,42.032704 84.56,41.9 C84.47,40.65 84.44,39.39 84.46,38.13 C84.4661471,37.8649229 84.2643042,37.6411406 84,37.62 Z" id="Shape"></path>
            <path d="M87.5,43.39 C87.2375697,43.4760145 87.0912829,43.7552892 87.17,44.02 C87.4615974,44.9697399 87.701944,45.9344643 87.89,46.91 C87.933878,47.1450182 88.1409553,47.3140609 88.38,47.31 L88.47,47.31 C88.7400369,47.2593958 88.9186586,47.0003942 88.87,46.73 C88.6802311,45.7158987 88.429781,44.7140983 88.12,43.73 C88.0426801,43.4649033 87.7650967,43.3126801 87.5,43.39 Z" id="Shape"></path>
            <path d="M48.46,24.24 L48.26,23.93 C48.1224311,23.7057663 47.9686899,23.4918655 47.8,23.29 C47.6664859,23.146486 47.5227786,23.0128047 47.37,22.89 L47.06,22.61 C46.7698185,22.2941797 46.6122689,21.8788217 46.62,21.45 C46.6256645,21.1776195 46.4122237,20.9508387 46.14,20.94 C46.0049288,20.9317145 45.8724447,20.979658 45.7739566,21.0724641 C45.6754684,21.1652703 45.6197461,21.2946751 45.62,21.43 C45.6037866,22.1190845 45.8587412,22.7869936 46.33,23.29 C46.4526032,23.4177734 46.5828422,23.5379941 46.72,23.65 C46.8370515,23.7455605 46.9473174,23.8491436 47.05,23.96 C47.1843835,24.1158241 47.3048448,24.2831315 47.41,24.46 C47.48,24.58 47.56,24.7 47.64,24.81 C48.1950359,25.5207412 48.8722899,26.1268835 49.64,26.6 C49.7253479,26.6492549 49.8215134,26.6767308 49.92,26.68 C50.0872319,26.6784722 50.243523,26.5966054 50.34,26.46 C50.4906236,26.2305587 50.4281375,25.9225913 50.2,25.77 C49.5380202,25.3615685 48.9497521,24.8442983 48.46,24.24 Z" id="Shape"></path>
            <path d="M66,16.72 L66.08,16.72 C66.3561424,16.7420914 66.5979086,16.5361424 66.62,16.26 C66.6420914,15.9838576 66.4361424,15.7420914 66.16,15.72 C64.9473726,15.5219305 63.7165982,15.458212 62.49,15.53 C62.357355,15.5351995 62.2322222,15.5929334 62.1421826,15.6904763 C62.0521431,15.7880191 62.0045883,15.9173635 62.01,16.05 C62.0312958,16.3238177 62.2656004,16.5315973 62.54,16.52 C63.6971484,16.4664859 64.8567245,16.5335134 66,16.72 Z" id="Shape"></path>
            <path d="M29.56,17.83 L29.73,23.58 C29.7407406,23.848302 29.9614832,24.0602149 30.23,24.06 C30.361753,24.0574215 30.486914,24.0018834 30.5772302,23.9059225 C30.6675463,23.8099616 30.7154039,23.6816674 30.71,23.55 L30.54,17.8 C30.5433174,17.6637243 30.488536,17.5324655 30.3893267,17.4389798 C30.2901174,17.3454941 30.1558385,17.2986 30.02,17.31 C29.7517053,17.3312805 29.5483919,17.5611131 29.56,17.83 Z" id="Shape"></path>
            <path d="M79.72,63.67 C78.3355849,63.444295 76.9403666,63.2907543 75.54,63.21 L59.37,62 C58.7572589,62.0031164 58.1507417,61.8770426 57.59,61.63 C57.1402605,61.3528991 56.7439651,60.9972494 56.42,60.58 C56.24,60.38 56.07,60.19 55.88,60 C54.18,58.32 51.69,57.77 49.69,57.33 C49.5612281,57.30039 49.4259557,57.324041 49.31487,57.3955877 C49.2037844,57.4671344 49.1263019,57.5805119 49.1,57.71 C49.0702144,57.8400022 49.0936017,57.9765166 49.164962,58.0891907 C49.2363223,58.2018649 49.3497407,58.2813596 49.48,58.31 C51.35,58.72 53.68,59.23 55.18,60.71 C55.35,60.88 55.51,61.06 55.67,61.24 C56.5011111,62.4014245 57.8632565,63.063683 59.29,63 L75.46,64.2 C76.81,64.31 78.2,64.41 79.55,64.65 C80.1,64.75 80.42,64.91 80.55,65.12 C80.6267018,65.3067128 80.8081491,65.4289924 81.01,65.43 C81.072541,65.4441673 81.137459,65.4441673 81.2,65.43 C81.4530845,65.3240997 81.5735675,65.034048 81.47,64.78 C81.1181121,64.132041 80.4561375,63.71216 79.72,63.67 Z" id="Shape"></path>
            <path d="M58.44,55.9 C59.1,56.21 59.77,56.53 60.44,56.9 L60.55,56.96 C60.8655257,57.1049535 61.1668326,57.2790419 61.45,57.48 C61.5510756,57.554518 61.6478941,57.6346437 61.74,57.72 C61.9094097,57.8803027 62.0935582,58.0242733 62.29,58.15 C62.881385,58.4819446 63.5424725,58.6703374 64.22,58.7 L64.51,58.7 C65.4467219,58.7323667 66.3677654,58.9498825 67.22,59.34 C67.42,59.45 67.62,59.59 67.81,59.72 C68,59.85 68.2,60 68.4,60.12 C69.4775389,60.6839066 70.6849805,60.9529936 71.9,60.9 C72.47,60.9 73.02,60.9 73.53,60.83 C73.7086328,60.819282 73.8679783,60.7140788 73.9480127,60.5540192 C74.0280471,60.3939597 74.0166111,60.2033608 73.9180127,60.0540192 C73.8194143,59.9046777 73.6486328,59.819282 73.47,59.83 C72.04,59.92 70.25,60.03 68.91,59.24 C68.7260672,59.138414 68.5490181,59.0248353 68.38,58.9 C68.1633821,58.7383576 67.9362099,58.5913638 67.7,58.46 C66.7334594,57.9962102 65.6814006,57.7374514 64.61,57.7 L64.32,57.7 C63.799764,57.6791512 63.2907327,57.5424985 62.83,57.3 C62.6781644,57.197855 62.5344074,57.0841866 62.4,56.96 L62.05,56.67 C61.7206043,56.4159097 61.3692137,56.191689 61,56 L60.9,56 C60.22,55.65 59.53,55.33 58.9,55 C56.6187758,54.1219815 54.5424503,52.7842833 52.8,51.07 C52.6785297,50.9378117 52.4957649,50.8804684 52.3205514,50.9195706 C52.1453378,50.9586728 52.0042946,51.0882801 51.9505513,51.2595706 C51.8968081,51.4308611 51.9385297,51.6178117 52.06,51.75 C53.85,53.75 56.08,54.79 58.44,55.9 Z" id="Shape"></path>
            <path d="M72,89.79 C71.8705049,89.6464367 71.6698473,89.5903957 71.4847038,89.6460846 C71.2995602,89.7017735 71.1631143,89.8592111 71.1343056,90.0503902 C71.1054969,90.2415693 71.1894888,90.4322245 71.35,90.54 C72.5602076,91.5902069 73.5963853,92.8255198 74.42,94.2 C74.4576131,94.2678806 74.4910097,94.3380133 74.52,94.41 C74.559529,94.6490013 74.7677736,94.8232468 75.01,94.82 L75.1,94.82 C75.3714521,94.7646221 75.5490489,94.5026667 75.5,94.23 C75.4596624,94.0396934 75.3814433,93.8594494 75.27,93.7 C74.4005533,92.2270392 73.295962,90.9062588 72,89.79 Z" id="Shape"></path>
            <path d="M50.26,89.06 C49.1443926,90.0082259 48.1681094,91.1090694 47.36,92.33 L47.08,92.79 C46.74,93.36 46.32,94.07 45.92,93.98 C45.03,93.76 44.51,94.58 44.34,94.85 C44.2453246,95.0018379 44.2388455,95.1926506 44.3230032,95.3505608 C44.407161,95.5084711 44.5691701,95.6094885 44.7480033,95.6155608 C44.9268364,95.6216332 45.0953246,95.5318379 45.19,95.38 C45.49,94.9 45.63,94.93 45.68,94.95 C46.79,95.22 47.45,94.11 47.94,93.31 C48.03,93.16 48.11,93.01 48.2,92.88 C48.9539862,91.7545857 49.8667666,90.7441277 50.91,89.88 C51.1194216,89.6988617 51.1460538,89.3837137 50.97,89.17 C50.8007825,88.9494459 50.4880232,88.9009902 50.26,89.06 Z" id="Shape"></path>
            <path d="M20.67,74.62 C20.3953772,74.6025415 20.1564238,74.8060945 20.13,75.08 C20.13,75.6 19.01,76.57 18.29,77.08 L18.17,77.2 C17.8154215,77.6323117 17.3808247,77.9922121 16.89,78.26 C16.0449967,78.6719572 15.3849639,79.3855063 15.04,80.26 C14.9996587,80.3859722 15.0119607,80.5229031 15.0741095,80.6396675 C15.1362583,80.756432 15.2429742,80.8431103 15.37,80.88 L15.51,80.88 C15.7333538,80.8834389 15.9307623,80.7353826 15.99,80.52 C16.19,79.85 16.77,79.52 17.43,79.05 C17.999979,78.7294738 18.5079886,78.3095192 18.93,77.81 C19.41,77.47 21.05,76.24 21.13,75.12 C21.1308372,74.8587531 20.930411,74.6408985 20.67,74.62 Z" id="Shape"></path>
        </g>
    </g>
</svg>